<?xml version="1.0" encoding="utf-8"?>
<!-- Generator: Adobe Illustrator 16.0.0, SVG Export Plug-In . SVG Version: 6.00 Build 0)  -->
<!DOCTYPE svg PUBLIC "-//W3C//DTD SVG 1.1//EN" "http://www.w3.org/Graphics/SVG/1.1/DTD/svg11.dtd">
<svg version="1.1" id="圖層_1" xmlns="http://www.w3.org/2000/svg" xmlns:xlink="http://www.w3.org/1999/xlink" x="0px" y="0px"
	 width="500px" height="500px" viewBox="0 0 500 500" enable-background="new 0 0 500 500" xml:space="preserve">
<g>
	<g>
		<path fill="#FFFFFF" stroke="#FFFFFF" stroke-width="0.25" stroke-miterlimit="10" d="M174.081,221.579
			c-2.314,0-4.429-0.406-6.338-1.218c-1.909-0.811-3.547-1.999-4.915-3.562s-2.425-3.487-3.176-5.771
			c-0.752-2.285-1.127-4.902-1.127-7.848c0-2.886,0.366-5.471,1.103-7.756c0.736-2.285,1.789-4.208,3.156-5.772
			c1.368-1.563,3.006-2.758,4.915-3.584c1.909-0.827,4.038-1.24,6.383-1.24c1.684,0,3.252,0.226,4.71,0.677
			c1.458,0.451,2.75,1.112,3.878,1.984c1.127,0.872,2.074,1.954,2.841,3.247c0.767,1.292,1.303,2.765,1.603,4.419h-3.517
			c-0.15-1.082-0.491-2.044-1.017-2.886c-0.526-0.842-1.207-1.548-2.049-2.12c-0.842-0.571-1.813-1-2.911-1.285
			c-1.097-0.286-2.274-0.429-3.537-0.429c-1.773,0-3.397,0.308-4.87,0.924c-1.473,0.616-2.735,1.541-3.787,2.773
			c-1.052,1.233-1.864,2.773-2.436,4.622c-0.571,1.849-0.856,3.991-0.856,6.426c0,2.465,0.286,4.621,0.856,6.469
			c0.572,1.849,1.383,3.392,2.436,4.625c1.052,1.232,2.314,2.154,3.787,2.771c1.473,0.617,3.097,0.927,4.87,0.927
			c1.173,0,2.3-0.146,3.382-0.431c1.082-0.286,2.049-0.707,2.906-1.263c0.856-0.556,1.573-1.248,2.144-2.074
			c0.572-0.827,0.932-1.794,1.083-2.906h3.517c-0.331,1.684-0.881,3.162-1.648,4.439c-0.767,1.277-1.713,2.354-2.841,3.226
			c-1.127,0.872-2.419,1.524-3.878,1.959C177.288,221.358,175.735,221.579,174.081,221.579z"/>
		<path fill="#FFFFFF" stroke="#FFFFFF" stroke-width="0.25" stroke-miterlimit="10" d="M278.587,220.677h-3.607v-22.818
			c0-3.337-0.521-5.742-1.558-7.215c-1.038-1.473-2.861-2.209-5.477-2.209c-1.925,0-3.798,0.594-5.617,1.781
			c-1.818,1.187-3.582,2.863-5.295,5.027v25.434h-3.608v-22.818c0-1.653-0.114-3.081-0.34-4.284s-0.606-2.18-1.147-2.931
			s-1.258-1.308-2.145-1.668c-0.887-0.36-1.975-0.541-3.266-0.541c-1.895,0-3.698,0.594-5.412,1.781
			c-1.714,1.187-3.442,2.863-5.186,5.027v25.434h-3.607v-34.948h3.607v5.186c1.203-1.353,2.335-2.428,3.402-3.224
			c1.067-0.797,2.073-1.405,3.021-1.826c0.947-0.421,1.848-0.699,2.705-0.834c0.857-0.135,1.678-0.203,2.459-0.203
			c2.256,0,4.18,0.526,5.772,1.578c1.594,1.052,2.751,2.661,3.472,4.825c0.902-1.262,1.854-2.307,2.861-3.134
			c1.008-0.826,2.029-1.48,3.066-1.961s2.084-0.819,3.136-1.015c1.053-0.195,2.075-0.293,3.067-0.293
			c6.463,0,9.694,4.239,9.694,12.716V220.677z"/>
		<path fill="#FFFFFF" stroke="#FFFFFF" stroke-width="0.25" stroke-miterlimit="10" d="M334.469,220.677h-3.606v-22.818
			c0-3.337-0.521-5.742-1.559-7.215s-2.86-2.209-5.477-2.209c-1.924,0-3.798,0.594-5.616,1.781
			c-1.818,1.187-3.583,2.863-5.296,5.027v25.434h-3.607v-22.818c0-1.653-0.115-3.081-0.341-4.284
			c-0.225-1.203-0.606-2.18-1.147-2.931s-1.257-1.308-2.144-1.668c-0.887-0.36-1.975-0.541-3.268-0.541
			c-1.894,0-3.697,0.594-5.411,1.781c-1.714,1.187-3.441,2.863-5.185,5.027v25.434h-3.607v-34.948h3.607v5.186
			c1.202-1.353,2.335-2.428,3.401-3.224c1.067-0.797,2.074-1.405,3.021-1.826c0.946-0.421,1.849-0.699,2.705-0.834
			c0.857-0.135,1.679-0.203,2.46-0.203c2.255,0,4.179,0.526,5.772,1.578c1.593,1.052,2.75,2.661,3.472,4.825
			c0.901-1.262,1.854-2.307,2.861-3.134c1.007-0.826,2.028-1.48,3.065-1.961s2.084-0.819,3.137-1.015
			c1.052-0.195,2.074-0.293,3.065-0.293c6.464,0,9.695,4.239,9.695,12.716V220.677z"/>
		<path fill="#FFFFFF" stroke="#FFFFFF" stroke-width="0.25" stroke-miterlimit="10" d="M367.649,216.167
			c-1.232,1.083-2.436,1.974-3.608,2.681c-1.172,0.707-2.324,1.263-3.451,1.669c-1.128,0.406-2.245,0.687-3.357,0.837
			c-1.111,0.15-2.239,0.225-3.382,0.225c-1.533,0-2.961-0.236-4.283-0.701c-1.323-0.466-2.465-1.128-3.428-1.985
			c-0.962-0.856-1.723-1.893-2.279-3.111s-0.832-2.56-0.832-4.033c0-3.999,1.704-7.111,5.115-9.335
			c3.413-2.225,8.533-3.337,15.356-3.337h4.149c0-1.534-0.091-2.947-0.271-4.239c-0.181-1.292-0.602-2.413-1.263-3.359
			c-0.662-0.947-1.639-1.691-2.931-2.232c-1.293-0.541-3.052-0.812-5.276-0.812c-3.277,0-5.737,0.511-7.375,1.533
			c-1.638,1.022-2.605,2.57-2.906,4.645h-3.562c0.36-3.307,1.652-5.765,3.878-7.373c2.224-1.608,5.531-2.412,9.92-2.412
			c2.435,0,4.499,0.3,6.197,0.902c1.699,0.601,3.082,1.466,4.148,2.593c1.067,1.127,1.844,2.495,2.325,4.104s0.722,3.42,0.722,5.434
			v22.818h-3.607V216.167z M367.649,202.684h-5.456c-5.23,0-9.134,0.751-11.704,2.255c-2.57,1.502-3.854,3.654-3.854,6.45
			c0,2.074,0.813,3.687,2.436,4.845c1.623,1.157,3.848,1.739,6.674,1.739c1.232,0,2.425-0.191,3.582-0.567
			c1.157-0.375,2.249-0.861,3.271-1.463c1.022-0.601,1.959-1.272,2.816-2.009c0.856-0.737,1.603-1.448,2.234-2.139V202.684z"/>
		<g>
			<path fill="#FFFFFF" d="M205.384,220.123c0,0,0,0-0.001,0c-2.229,0-4.605-0.22-7.263-0.673l0.29-3.131c0,0,0,0,0,0
				c0.186,0,3.351-0.021,5.504-1.413c-5.099-2.488-8.49-7.755-8.49-13.554c0-8.309,6.76-15.069,15.069-15.069
				s15.069,6.76,15.069,15.069c0,6.734-3.784,13.443-9.201,16.315C213.289,219.296,209.595,220.123,205.384,220.123z
				 M210.494,189.437c-6.57,0-11.916,5.345-11.916,11.916c0,5.253,3.518,9.954,8.556,11.432l1.962,0.576l-1.056,1.751
				c-0.438,0.728-0.983,1.334-1.589,1.839c3.271-0.12,6.039-0.8,8.433-2.069c4.431-2.349,7.525-7.912,7.525-13.529
				C222.41,194.782,217.064,189.437,210.494,189.437z"/>
			<path fill="#FFFFFF" d="M196.352,217.909c0,0.841,1.239,1.53,2.064,1.59c0.91,0.066,1.651-0.817,1.651-1.658
				c0-0.841-0.637-1.578-1.651-1.522C197.505,216.369,196.352,217.068,196.352,217.909z"/>
		</g>
	</g>
</g>
</svg>
